<?xml version="1.0" encoding="UTF-8"?>
<svg xmlns="http://www.w3.org/2000/svg" xmlns:xlink="http://www.w3.org/1999/xlink" viewBox="0 0 219.03 381.3">
  <defs>
    <style>
      .cls-1 {
        fill: url(#linear-gradient-2);
      }

      .cls-2 {
        fill: url(#linear-gradient-17);
      }

      .cls-3 {
        fill: url(#linear-gradient-43);
      }

      .cls-4 {
        fill: url(#linear-gradient-15);
      }

      .cls-5 {
        fill: url(#linear-gradient-18);
      }

      .cls-6 {
        fill: url(#linear-gradient-40);
      }

      .cls-7 {
        fill: none;
        stroke: #6cd0d7;
        stroke-linecap: round;
        stroke-linejoin: round;
        stroke-width: 1.18px;
      }

      .cls-8 {
        fill: url(#linear-gradient-28);
      }

      .cls-9 {
        fill: url(#linear-gradient-14);
      }

      .cls-10 {
        fill: url(#linear-gradient-36);
      }

      .cls-11 {
        fill: url(#linear-gradient-20);
      }

      .cls-12 {
        fill: url(#linear-gradient-6);
      }

      .cls-13 {
        isolation: isolate;
      }

      .cls-14 {
        fill: #00307d;
      }

      .cls-15 {
        fill: url(#linear-gradient-35);
      }

      .cls-16 {
        fill: url(#linear-gradient-32);
      }

      .cls-17 {
        fill: url(#linear-gradient-11);
      }

      .cls-18 {
        opacity: .8;
      }

      .cls-18, .cls-19, .cls-20 {
        fill: #0b499e;
      }

      .cls-18, .cls-20, .cls-21 {
        mix-blend-mode: multiply;
      }

      .cls-22 {
        fill: url(#linear-gradient-39);
      }

      .cls-23 {
        fill: url(#linear-gradient-10);
      }

      .cls-24 {
        fill: #fff;
        mix-blend-mode: soft-light;
      }

      .cls-25 {
        fill: url(#linear-gradient-37);
      }

      .cls-26 {
        fill: url(#linear-gradient-16);
      }

      .cls-27 {
        fill: url(#linear-gradient-31);
      }

      .cls-28 {
        fill: url(#linear-gradient-41);
      }

      .cls-29 {
        fill: url(#linear-gradient-21);
      }

      .cls-30 {
        fill: url(#linear-gradient-25);
      }

      .cls-31 {
        fill: url(#linear-gradient-5);
      }

      .cls-32 {
        fill: #6cd0d7;
      }

      .cls-33 {
        fill: url(#linear-gradient-34);
      }

      .cls-34 {
        fill: url(#linear-gradient-7);
      }

      .cls-35 {
        fill: url(#linear-gradient-24);
      }

      .cls-36 {
        fill: url(#linear-gradient-9);
      }

      .cls-37 {
        fill: url(#linear-gradient-22);
      }

      .cls-38 {
        fill: url(#linear-gradient-42);
      }

      .cls-39 {
        fill: url(#linear-gradient-3);
      }

      .cls-40 {
        fill: url(#linear-gradient);
      }

      .cls-41 {
        fill: url(#linear-gradient-27);
      }

      .cls-42 {
        fill: url(#linear-gradient-33);
      }

      .cls-43 {
        fill: url(#linear-gradient-38);
      }

      .cls-44 {
        fill: url(#linear-gradient-29);
      }

      .cls-45 {
        fill: url(#linear-gradient-30);
      }

      .cls-46 {
        fill: url(#linear-gradient-23);
      }

      .cls-47 {
        fill: url(#linear-gradient-19);
      }

      .cls-48 {
        fill: url(#linear-gradient-4);
      }

      .cls-49 {
        fill: url(#linear-gradient-8);
      }

      .cls-50 {
        fill: url(#linear-gradient-12);
      }

      .cls-51 {
        fill: url(#linear-gradient-13);
      }

      .cls-52 {
        fill: url(#linear-gradient-26);
      }
    </style>
    <linearGradient id="linear-gradient" x1="-1481.7" y1="67.31" x2="-1409.43" y2="67.31" gradientTransform="translate(1488.78)" gradientUnits="userSpaceOnUse">
      <stop offset="0" stop-color="#3893e1"/>
      <stop offset="1" stop-color="#99caf2"/>
    </linearGradient>
    <linearGradient id="linear-gradient-2" x1="-1476.73" y1="68.7" x2="-1416.24" y2="68.7" gradientTransform="translate(1488.78)" gradientUnits="userSpaceOnUse">
      <stop offset="0" stop-color="#0074d9"/>
      <stop offset="1" stop-color="#0074d9"/>
    </linearGradient>
    <linearGradient id="linear-gradient-3" x1="-1492.5" y1="124.33" x2="-1479.19" y2="61.99" gradientTransform="translate(1488.78)" gradientUnits="userSpaceOnUse">
      <stop offset="0" stop-color="#0074d9"/>
      <stop offset=".05" stop-color="#0175d9"/>
      <stop offset=".54" stop-color="#0e7fdc"/>
      <stop offset="1" stop-color="#1383dd"/>
    </linearGradient>
    <linearGradient id="linear-gradient-4" x1="-1488.78" y1="28.26" x2="-1409.43" y2="28.26" gradientTransform="translate(1488.78)" gradientUnits="userSpaceOnUse">
      <stop offset="0" stop-color="#99caf2"/>
      <stop offset="1" stop-color="#3893e1"/>
    </linearGradient>
    <linearGradient id="linear-gradient-5" x1="142.25" y1="250.66" x2="202.03" y2="218.74" gradientUnits="userSpaceOnUse">
      <stop offset="0" stop-color="#0074d9"/>
      <stop offset="1" stop-color="#1383dd"/>
    </linearGradient>
    <linearGradient id="linear-gradient-6" x1="203.51" y1="300.57" x2="203.51" y2="217.49" gradientTransform="matrix(1,0,0,1,0,0)" xlink:href="#linear-gradient"/>
    <linearGradient id="linear-gradient-7" x1="157.54" y1="170.84" x2="216.9" y2="169.45" gradientUnits="userSpaceOnUse">
      <stop offset="0" stop-color="#137cda"/>
      <stop offset="1" stop-color="#73bbed"/>
    </linearGradient>
    <linearGradient id="linear-gradient-8" x1="171.71" y1="180.63" x2="183.08" y2="174.56" xlink:href="#linear-gradient-5"/>
    <linearGradient id="linear-gradient-9" x1="198.54" y1="186.46" x2="198.54" y2="175.26" gradientTransform="matrix(1,0,0,1,0,0)" xlink:href="#linear-gradient"/>
    <linearGradient id="linear-gradient-10" x1="167.3" y1="169.36" x2="207.64" y2="168.42" gradientTransform="matrix(1,0,0,1,0,0)" xlink:href="#linear-gradient"/>
    <linearGradient id="linear-gradient-11" x1="193.99" y1="229.7" x2="209.43" y2="235.51" gradientUnits="userSpaceOnUse">
      <stop offset=".07" stop-color="#0074d9"/>
      <stop offset=".39" stop-color="#077ada"/>
      <stop offset="1" stop-color="#1383dd"/>
    </linearGradient>
    <linearGradient id="linear-gradient-12" x1="211.11" y1="242.21" x2="194.34" y2="253.25" gradientUnits="userSpaceOnUse">
      <stop offset=".13" stop-color="#0074d9"/>
      <stop offset=".43" stop-color="#077ada"/>
      <stop offset="1" stop-color="#1383dd"/>
    </linearGradient>
    <linearGradient id="linear-gradient-13" x1="211.77" y1="242.95" x2="211.77" y2="210.79" xlink:href="#linear-gradient-11"/>
    <linearGradient id="linear-gradient-14" x1="83.6" y1="291.85" x2="143.38" y2="259.94" xlink:href="#linear-gradient-5"/>
    <linearGradient id="linear-gradient-15" x1="144.86" y1="341.77" x2="144.86" y2="258.69" gradientTransform="matrix(1,0,0,1,0,0)" xlink:href="#linear-gradient"/>
    <linearGradient id="linear-gradient-16" x1="98.89" y1="212.04" x2="158.26" y2="210.64" xlink:href="#linear-gradient-7"/>
    <linearGradient id="linear-gradient-17" x1="113.06" y1="221.82" x2="124.43" y2="215.75" xlink:href="#linear-gradient-5"/>
    <linearGradient id="linear-gradient-18" x1="139.89" y1="227.66" x2="139.89" y2="216.46" gradientTransform="matrix(1,0,0,1,0,0)" xlink:href="#linear-gradient"/>
    <linearGradient id="linear-gradient-19" x1="108.66" y1="210.56" x2="148.99" y2="209.61" gradientTransform="matrix(1,0,0,1,0,0)" xlink:href="#linear-gradient"/>
    <linearGradient id="linear-gradient-20" x1="135.34" y1="270.9" x2="150.78" y2="276.71" xlink:href="#linear-gradient-11"/>
    <linearGradient id="linear-gradient-21" x1="152.46" y1="283.4" x2="135.69" y2="294.44" xlink:href="#linear-gradient-12"/>
    <linearGradient id="linear-gradient-22" x1="153.12" y1="284.15" x2="153.12" y2="251.99" xlink:href="#linear-gradient-11"/>
    <linearGradient id="linear-gradient-23" x1="24.96" y1="333.05" x2="84.74" y2="301.13" xlink:href="#linear-gradient-5"/>
    <linearGradient id="linear-gradient-24" x1="86.22" y1="382.97" x2="86.22" y2="299.89" gradientTransform="matrix(1,0,0,1,0,0)" xlink:href="#linear-gradient"/>
    <linearGradient id="linear-gradient-25" x1="40.25" y1="253.24" x2="99.61" y2="251.84" xlink:href="#linear-gradient-7"/>
    <linearGradient id="linear-gradient-26" x1="54.41" y1="263.02" x2="65.79" y2="256.95" xlink:href="#linear-gradient-5"/>
    <linearGradient id="linear-gradient-27" x1="81.24" y1="268.86" x2="81.24" y2="257.66" gradientTransform="matrix(1,0,0,1,0,0)" xlink:href="#linear-gradient"/>
    <linearGradient id="linear-gradient-28" x1="50.01" y1="251.76" x2="90.34" y2="250.81" gradientTransform="matrix(1,0,0,1,0,0)" xlink:href="#linear-gradient"/>
    <linearGradient id="linear-gradient-29" x1="76.7" y1="312.1" x2="92.14" y2="317.91" xlink:href="#linear-gradient-11"/>
    <linearGradient id="linear-gradient-30" x1="93.81" y1="324.6" x2="77.04" y2="335.64" xlink:href="#linear-gradient-12"/>
    <linearGradient id="linear-gradient-31" x1="94.47" y1="325.35" x2="94.47" y2="293.18" xlink:href="#linear-gradient-11"/>
    <linearGradient id="linear-gradient-32" x1="-4253.41" y1="115.27" x2="-4253.36" y2="115.27" gradientTransform="translate(4370.53 17.18) rotate(.3)" xlink:href="#linear-gradient-5"/>
    <linearGradient id="linear-gradient-33" x1="-4260.83" y1="114.05" x2="-4260.61" y2="114.05" gradientTransform="translate(4370.53 17.18) rotate(.3)" xlink:href="#linear-gradient-5"/>
    <linearGradient id="linear-gradient-34" x1="-4235.3" y1="102.29" x2="-4195.82" y2="102.29" gradientTransform="translate(4370.53 17.18) rotate(.3)" xlink:href="#linear-gradient-5"/>
    <linearGradient id="linear-gradient-35" x1="-4226.36" y1="104.83" x2="-4225.19" y2="104.83" gradientTransform="translate(4370.53 17.18) rotate(.3)" xlink:href="#linear-gradient-5"/>
    <linearGradient id="linear-gradient-36" x1="-4223.87" y1="104.93" x2="-4221.94" y2="104.93" gradientTransform="translate(4370.53 17.18) rotate(.3)" xlink:href="#linear-gradient-5"/>
    <linearGradient id="linear-gradient-37" x1="-4225.03" y1="104.74" x2="-4223.99" y2="104.74" gradientTransform="translate(4370.53 17.18) rotate(.3)" xlink:href="#linear-gradient-5"/>
    <linearGradient id="linear-gradient-38" x1="-4258.13" y1="113.93" x2="-4257.91" y2="113.93" gradientTransform="translate(4370.53 17.18) rotate(.3)" xlink:href="#linear-gradient-5"/>
    <linearGradient id="linear-gradient-39" x1="-4295.04" y1="161.04" x2="-4294.49" y2="161.04" gradientTransform="translate(4370.53 17.18) rotate(.3)" xlink:href="#linear-gradient-5"/>
    <linearGradient id="linear-gradient-40" x1="-4347.16" y1="172.51" x2="-4295.31" y2="172.51" gradientTransform="translate(4370.53 17.18) rotate(.3)" xlink:href="#linear-gradient-5"/>
    <linearGradient id="linear-gradient-41" x1="-4314.94" y1="198.06" x2="-4226.47" y2="113.44" gradientTransform="translate(4370.53 17.18) rotate(.3)" gradientUnits="userSpaceOnUse">
      <stop offset="0" stop-color="#1e8cdf"/>
      <stop offset="1" stop-color="#73bbed"/>
    </linearGradient>
    <linearGradient id="linear-gradient-42" x1="-4267.82" y1="106.88" x2="-4221.06" y2="106.88" gradientTransform="translate(4370.53 17.18) rotate(.3)" xlink:href="#linear-gradient-5"/>
    <linearGradient id="linear-gradient-43" x1="-4317.26" y1="129.49" x2="-4254.36" y2="129.49" gradientTransform="translate(4370.53 17.18) rotate(.3)" xlink:href="#linear-gradient-5"/>
  </defs>
  <g class="cls-13">
    <g id="Capa_2" data-name="Capa 2">
      <g id="Layer_1" data-name="Layer 1">
        <g>
          <g>
            <polygon class="cls-40" points="7.08 128.78 46.71 128.8 79.36 78.08 79.36 5.82 7.08 56.51 7.08 128.78"/>
            <polygon class="cls-1" points="12.05 120.15 45.22 120.17 72.54 77.72 72.54 17.23 12.05 59.66 12.05 120.15"/>
            <polygon class="cls-39" points="7.08 128.78 0 124.09 0 51.82 7.08 56.51 7.08 128.78"/>
            <polygon class="cls-48" points="72.23 0 79.36 5.82 7.1 56.52 0 51.82 72.23 0"/>
            <polygon class="cls-24" points="21.29 53.18 67.54 85.48 62.53 93.27 13.21 58.84 21.29 53.18"/>
            <polygon class="cls-24" points="60.68 96.15 57.67 100.83 12.05 68.96 12.05 62.18 60.68 96.15"/>
          </g>
          <g>
            <g>
              <g>
                <g>
                  <polygon class="cls-31" points="188 298.9 156.97 277.14 156.97 170.13 188 191.89 188 298.9"/>
                  <polygon class="cls-12" points="188 298.9 219.03 277.14 219.03 170.13 188 191.89 188 298.9"/>
                  <polygon class="cls-34" points="188 148.34 188 148.34 188 148.34 188 148.34 156.97 170.14 188 191.91 188 191.91 188 191.91 188 191.91 219.03 170.14 188 148.34"/>
                  <g class="cls-21">
                    <polygon class="cls-19" points="190.56 198.18 219.03 178.21 219.03 174.93 190.56 194.9 190.56 198.18"/>
                    <polygon class="cls-19" points="190.56 206.58 219.03 186.61 219.03 183.33 190.56 203.3 190.56 206.58"/>
                    <polygon class="cls-19" points="190.56 214.98 219.03 195.01 219.03 191.73 190.56 211.7 190.56 214.98"/>
                    <polygon class="cls-19" points="190.56 223.38 219.03 203.41 219.03 200.14 190.56 220.1 190.56 223.38"/>
                  </g>
                  <g class="cls-21">
                    <polygon class="cls-19" points="190.56 265.1 219.03 245.13 219.03 241.86 190.56 261.83 190.56 265.1"/>
                    <polygon class="cls-19" points="190.56 273.5 219.03 253.53 219.03 250.26 190.56 270.23 190.56 273.5"/>
                    <polygon class="cls-19" points="190.56 281.9 219.03 261.94 219.03 258.66 190.56 278.63 190.56 281.9"/>
                    <polygon class="cls-19" points="190.56 290.3 219.03 270.34 219.03 267.06 190.56 287.03 190.56 290.3"/>
                  </g>
                  <g>
                    <polygon class="cls-49" points="188 186.24 166.92 171.45 166.92 168.88 188 183.67 188 186.24"/>
                    <polygon class="cls-36" points="188 186.24 209.08 171.45 209.08 168.88 188 183.67 188 186.24"/>
                    <polygon class="cls-23" points="188 154.08 188 154.08 188 154.08 188 154.08 166.92 168.89 188 183.68 188 183.68 188 183.68 188 183.68 209.08 168.89 188 154.08"/>
                  </g>
                  <g class="cls-21">
                    <polygon class="cls-19" points="188.87 161.33 188.87 161.33 188.87 161.33 188.87 161.33 176.46 170.04 177.75 170.96 177.75 170.96 177.75 170.96 177.75 170.96 190.16 162.26 188.87 161.33"/>
                    <polygon class="cls-19" points="191.21 163 191.21 163 191.21 163 191.21 163 178.81 171.71 180.1 172.63 180.1 172.63 180.1 172.63 180.1 172.63 192.5 163.93 191.21 163"/>
                    <polygon class="cls-19" points="193.55 164.67 193.55 164.67 193.55 164.67 193.55 164.67 181.15 173.39 182.44 174.3 182.44 174.3 182.44 174.3 182.44 174.3 194.85 165.6 193.55 164.67"/>
                    <polygon class="cls-19" points="195.9 166.34 195.9 166.34 195.9 166.34 195.9 166.34 183.49 175.06 184.79 175.97 184.79 175.97 184.79 175.97 184.79 175.97 197.19 167.27 195.9 166.34"/>
                    <polygon class="cls-19" points="198.24 168.02 198.24 168.02 198.24 168.02 198.24 168.02 185.84 176.73 187.13 177.64 187.13 177.64 187.13 177.64 187.13 177.64 199.53 168.94 198.24 168.02"/>
                  </g>
                </g>
                <g>
                  <g>
                    <polygon class="cls-17" points="194.85 255 213.12 242.19 213.12 211.92 194.85 224.74 194.85 255"/>
                    <polygon class="cls-20" points="194.85 255 210.41 244.09 210.41 240.65 194.85 229.74 194.85 255"/>
                    <polygon class="cls-50" points="195.45 254.58 210.41 244.09 210.41 240.6 195.45 251.09 195.45 254.58"/>
                    <polygon class="cls-51" points="210.41 213.83 210.41 244.09 213.12 242.19 213.12 211.92 210.41 213.83"/>
                    <g>
                      <polygon class="cls-14" points="195.45 224.29 194.85 224.74 194.85 255 195.45 254.56 195.45 224.29"/>
                      <polygon class="cls-14" points="194.85 225.47 213.12 212.66 213.12 211.92 194.85 224.73 194.85 225.47"/>
                    </g>
                  </g>
                  <polygon class="cls-18" points="194.85 255 213.12 242.19 213.12 211.92 194.85 224.74 194.85 255"/>
                  <g>
                    <g>
                      <polygon class="cls-32" points="208.69 217.76 205.51 219.99 205.51 221.16 208.69 218.93 208.69 217.76"/>
                      <polygon class="cls-32" points="209.46 217.22 209.46 218.39 210.35 217.76 210.35 216.59 209.46 217.22"/>
                      <polygon class="cls-32" points="204.96 220.37 196.07 226.61 196.07 227.78 204.96 221.54 204.96 220.37"/>
                      <polygon class="cls-32" points="208.69 220.81 205.51 223.04 205.51 224.21 208.69 221.99 208.69 220.81"/>
                      <polygon class="cls-32" points="204.96 223.43 196.07 229.66 196.07 230.84 204.96 224.6 204.96 223.43"/>
                      <polygon class="cls-32" points="204.96 226.48 196.07 232.72 196.07 233.89 204.96 227.65 204.96 226.48"/>
                    </g>
                    <g>
                      <polygon class="cls-32" points="208.69 226.75 205.51 228.98 205.51 230.15 208.69 227.92 208.69 226.75"/>
                      <polygon class="cls-32" points="209.46 226.21 209.46 227.38 210.35 226.75 210.35 225.58 209.46 226.21"/>
                      <polygon class="cls-32" points="204.96 229.36 196.07 235.6 196.07 236.77 204.96 230.54 204.96 229.36"/>
                      <polygon class="cls-32" points="208.69 229.8 205.51 232.03 205.51 233.21 208.69 230.97 208.69 229.8"/>
                      <polygon class="cls-32" points="204.96 232.42 196.07 238.66 196.07 239.83 204.96 233.59 204.96 232.42"/>
                      <polygon class="cls-32" points="204.96 235.47 196.07 241.71 196.07 242.88 204.96 236.64 204.96 235.47"/>
                    </g>
                    <g>
                      <polygon class="cls-32" points="208.69 235.74 205.51 237.97 205.51 239.14 208.69 236.91 208.69 235.74"/>
                      <polygon class="cls-32" points="209.46 235.2 209.46 236.37 210.35 235.75 210.35 234.57 209.46 235.2"/>
                      <polygon class="cls-32" points="204.96 238.35 196.07 244.59 196.07 245.76 204.96 239.53 204.96 238.35"/>
                      <polygon class="cls-32" points="208.69 238.79 205.51 241.02 205.51 242.19 208.69 239.97 208.69 238.79"/>
                      <polygon class="cls-32" points="204.96 241.41 196.07 247.65 196.07 248.82 204.96 242.58 204.96 241.41"/>
                      <polygon class="cls-32" points="204.96 244.46 196.07 250.7 196.07 251.88 204.96 245.63 204.96 244.46"/>
                    </g>
                  </g>
                </g>
              </g>
              <g>
                <g>
                  <polygon class="cls-9" points="129.35 340.1 98.32 318.33 98.32 211.32 129.35 233.09 129.35 340.1"/>
                  <polygon class="cls-4" points="129.35 340.1 160.38 318.33 160.38 211.32 129.35 233.09 129.35 340.1"/>
                  <polygon class="cls-26" points="129.35 189.54 129.35 189.54 129.35 189.54 129.35 189.54 98.32 211.34 129.35 233.11 129.35 233.11 129.35 233.11 129.35 233.11 160.38 211.34 129.35 189.54"/>
                  <g class="cls-21">
                    <polygon class="cls-19" points="131.91 239.37 160.38 219.4 160.38 216.13 131.91 236.1 131.91 239.37"/>
                    <polygon class="cls-19" points="131.91 247.77 160.38 227.8 160.38 224.53 131.91 244.5 131.91 247.77"/>
                    <polygon class="cls-19" points="131.91 256.17 160.38 236.2 160.38 232.93 131.91 252.9 131.91 256.17"/>
                    <polygon class="cls-19" points="131.91 264.57 160.38 244.6 160.38 241.33 131.91 261.3 131.91 264.57"/>
                  </g>
                  <g class="cls-21">
                    <polygon class="cls-19" points="131.91 306.3 160.38 286.33 160.38 283.06 131.91 303.03 131.91 306.3"/>
                    <polygon class="cls-19" points="131.91 314.7 160.38 294.73 160.38 291.46 131.91 311.43 131.91 314.7"/>
                    <polygon class="cls-19" points="131.91 323.1 160.38 303.13 160.38 299.86 131.91 319.83 131.91 323.1"/>
                    <polygon class="cls-19" points="131.91 331.5 160.38 311.54 160.38 308.26 131.91 328.23 131.91 331.5"/>
                  </g>
                  <g>
                    <polygon class="cls-2" points="129.35 227.43 108.27 212.65 108.27 210.08 129.35 224.86 129.35 227.43"/>
                    <polygon class="cls-5" points="129.35 227.43 150.43 212.65 150.43 210.08 129.35 224.86 129.35 227.43"/>
                    <polygon class="cls-47" points="129.35 195.27 129.35 195.27 129.35 195.27 129.35 195.27 108.27 210.09 129.35 224.87 129.35 224.87 129.35 224.87 129.35 224.87 150.43 210.09 129.35 195.27"/>
                  </g>
                  <g class="cls-21">
                    <polygon class="cls-19" points="130.22 202.53 130.22 202.53 130.22 202.53 130.22 202.53 117.82 211.24 119.11 212.15 119.11 212.15 119.11 212.15 119.11 212.15 131.51 203.45 130.22 202.53"/>
                    <polygon class="cls-19" points="132.56 204.2 132.56 204.2 132.56 204.2 132.56 204.2 120.16 212.91 121.45 213.83 121.45 213.83 121.45 213.83 121.45 213.83 133.86 205.13 132.56 204.2"/>
                    <polygon class="cls-19" points="134.91 205.87 134.91 205.87 134.91 205.87 134.91 205.87 122.51 214.59 123.8 215.5 123.8 215.5 123.8 215.5 123.8 215.5 136.2 206.8 134.91 205.87"/>
                    <polygon class="cls-19" points="137.25 207.54 137.25 207.54 137.25 207.54 137.25 207.54 124.85 216.26 126.14 217.17 126.14 217.17 126.14 217.17 126.14 217.17 138.54 208.47 137.25 207.54"/>
                    <polygon class="cls-19" points="139.59 209.21 139.59 209.21 139.59 209.21 139.59 209.21 127.19 217.93 128.48 218.84 128.48 218.84 128.48 218.84 128.48 218.84 140.89 210.14 139.59 209.21"/>
                  </g>
                </g>
                <g>
                  <g>
                    <polygon class="cls-11" points="136.21 296.2 154.47 283.39 154.47 253.12 136.21 265.94 136.21 296.2"/>
                    <polygon class="cls-20" points="136.21 296.2 151.76 285.29 151.76 281.85 136.21 270.93 136.21 296.2"/>
                    <polygon class="cls-29" points="136.8 295.78 151.76 285.29 151.76 281.79 136.8 292.29 136.8 295.78"/>
                    <polygon class="cls-37" points="151.76 255.02 151.76 285.29 154.47 283.39 154.47 253.12 151.76 255.02"/>
                    <g>
                      <polygon class="cls-14" points="136.8 265.49 136.21 265.94 136.21 296.2 136.8 295.76 136.8 265.49"/>
                      <polygon class="cls-14" points="136.21 266.66 154.47 253.86 154.47 253.12 136.21 265.92 136.21 266.66"/>
                    </g>
                  </g>
                  <polygon class="cls-18" points="136.21 296.2 154.47 283.39 154.47 253.12 136.21 265.94 136.21 296.2"/>
                  <g>
                    <g>
                      <polygon class="cls-32" points="150.04 258.95 146.86 261.18 146.86 262.35 150.04 260.13 150.04 258.95"/>
                      <polygon class="cls-32" points="150.81 258.42 150.81 259.59 151.71 258.96 151.71 257.79 150.81 258.42"/>
                      <polygon class="cls-32" points="146.31 261.57 137.42 267.81 137.42 268.98 146.31 262.74 146.31 261.57"/>
                      <polygon class="cls-32" points="150.04 262.01 146.86 264.24 146.86 265.41 150.04 263.18 150.04 262.01"/>
                      <polygon class="cls-32" points="146.31 264.62 137.42 270.86 137.42 272.03 146.31 265.79 146.31 264.62"/>
                      <polygon class="cls-32" points="146.31 267.68 137.42 273.91 137.42 275.09 146.31 268.85 146.31 267.68"/>
                    </g>
                    <g>
                      <polygon class="cls-32" points="150.04 267.94 146.86 270.17 146.86 271.35 150.04 269.12 150.04 267.94"/>
                      <polygon class="cls-32" points="150.81 267.41 150.81 268.58 151.71 267.95 151.71 266.78 150.81 267.41"/>
                      <polygon class="cls-32" points="146.31 270.56 137.42 276.8 137.42 277.97 146.31 271.73 146.31 270.56"/>
                      <polygon class="cls-32" points="150.04 271 146.86 273.23 146.86 274.4 150.04 272.17 150.04 271"/>
                      <polygon class="cls-32" points="146.31 273.61 137.42 279.85 137.42 281.02 146.31 274.79 146.31 273.61"/>
                      <polygon class="cls-32" points="146.31 276.67 137.42 282.91 137.42 284.08 146.31 277.84 146.31 276.67"/>
                    </g>
                    <g>
                      <polygon class="cls-32" points="150.04 276.94 146.86 279.17 146.86 280.34 150.04 278.11 150.04 276.94"/>
                      <polygon class="cls-32" points="150.81 276.4 150.81 277.57 151.71 276.94 151.71 275.77 150.81 276.4"/>
                      <polygon class="cls-32" points="146.31 279.55 137.42 285.79 137.42 286.96 146.31 280.72 146.31 279.55"/>
                      <polygon class="cls-32" points="150.04 279.99 146.86 282.22 146.86 283.39 150.04 281.16 150.04 279.99"/>
                      <polygon class="cls-32" points="146.31 282.61 137.42 288.84 137.42 290.02 146.31 283.78 146.31 282.61"/>
                      <polygon class="cls-32" points="146.31 285.66 137.42 291.9 137.42 293.07 146.31 286.83 146.31 285.66"/>
                    </g>
                  </g>
                </g>
              </g>
              <g>
                <g>
                  <polygon class="cls-46" points="70.71 381.3 39.68 359.53 39.68 252.52 70.71 274.29 70.71 381.3"/>
                  <polygon class="cls-35" points="70.71 381.3 101.73 359.53 101.73 252.52 70.71 274.29 70.71 381.3"/>
                  <polygon class="cls-30" points="70.71 230.74 70.71 230.74 70.71 230.74 70.71 230.74 39.68 252.54 70.71 274.3 70.71 274.3 70.71 274.3 70.71 274.3 101.73 252.54 70.71 230.74"/>
                  <g class="cls-21">
                    <polygon class="cls-19" points="73.27 280.57 101.73 260.6 101.73 257.33 73.27 277.29 73.27 280.57"/>
                    <polygon class="cls-19" points="73.27 288.97 101.73 269 101.73 265.73 73.27 285.7 73.27 288.97"/>
                    <polygon class="cls-19" points="73.27 297.37 101.73 277.4 101.73 274.13 73.27 294.1 73.27 297.37"/>
                    <polygon class="cls-19" points="73.27 305.77 101.73 285.8 101.73 282.53 73.27 302.5 73.27 305.77"/>
                  </g>
                  <g class="cls-21">
                    <polygon class="cls-19" points="73.27 347.5 101.73 327.53 101.73 324.25 73.27 344.22 73.27 347.5"/>
                    <polygon class="cls-19" points="73.27 355.9 101.73 335.93 101.73 332.66 73.27 352.62 73.27 355.9"/>
                    <polygon class="cls-19" points="73.27 364.3 101.73 344.33 101.73 341.06 73.27 361.03 73.27 364.3"/>
                    <polygon class="cls-19" points="73.27 372.7 101.73 352.73 101.73 349.46 73.27 369.43 73.27 372.7"/>
                  </g>
                  <g>
                    <polygon class="cls-52" points="70.71 268.63 49.62 253.84 49.62 251.27 70.71 266.06 70.71 268.63"/>
                    <polygon class="cls-41" points="70.71 268.63 91.78 253.84 91.78 251.27 70.71 266.06 70.71 268.63"/>
                    <polygon class="cls-8" points="70.71 236.47 70.71 236.47 70.71 236.47 70.71 236.47 49.62 251.28 70.71 266.07 70.71 266.07 70.71 266.07 70.71 266.07 91.78 251.28 70.71 236.47"/>
                  </g>
                  <g class="cls-21">
                    <polygon class="cls-19" points="71.57 243.72 71.57 243.72 71.57 243.72 71.57 243.72 59.17 252.44 60.46 253.35 60.46 253.35 60.46 253.35 60.46 253.35 72.86 244.65 71.57 243.72"/>
                    <polygon class="cls-19" points="73.92 245.39 73.92 245.39 73.92 245.39 73.92 245.39 61.51 254.11 62.81 255.02 62.81 255.02 62.81 255.02 62.81 255.02 75.21 246.32 73.92 245.39"/>
                    <polygon class="cls-19" points="76.26 247.07 76.26 247.06 76.26 247.06 76.26 247.07 63.86 255.78 65.15 256.69 65.15 256.69 65.15 256.69 65.15 256.69 77.55 247.99 76.26 247.07"/>
                    <polygon class="cls-19" points="78.6 248.74 78.6 248.74 78.6 248.74 78.6 248.74 66.2 257.45 67.49 258.36 67.49 258.37 67.49 258.37 67.49 258.36 79.89 249.67 78.6 248.74"/>
                    <polygon class="cls-19" points="80.95 250.41 80.95 250.41 80.95 250.41 80.95 250.41 68.54 259.12 69.84 260.04 69.84 260.04 69.84 260.04 69.84 260.04 82.24 251.34 80.95 250.41"/>
                  </g>
                </g>
                <g>
                  <g>
                    <polygon class="cls-44" points="77.56 337.4 95.83 324.58 95.83 294.32 77.56 307.13 77.56 337.4"/>
                    <polygon class="cls-20" points="77.56 337.4 93.12 326.48 93.12 323.04 77.56 312.13 77.56 337.4"/>
                    <polygon class="cls-45" points="78.15 336.98 93.12 326.48 93.12 322.99 78.15 333.48 78.15 336.98"/>
                    <polygon class="cls-27" points="93.12 296.22 93.12 326.48 95.83 324.58 95.83 294.32 93.12 296.22"/>
                    <g>
                      <polygon class="cls-14" points="78.15 306.69 77.56 307.13 77.56 337.4 78.15 336.95 78.15 306.69"/>
                      <polygon class="cls-14" points="77.56 307.86 95.83 295.06 95.83 294.32 77.56 307.12 77.56 307.86"/>
                    </g>
                  </g>
                  <polygon class="cls-18" points="77.56 337.4 95.83 324.58 95.83 294.32 77.56 307.13 77.56 337.4"/>
                  <g>
                    <g>
                      <polygon class="cls-32" points="91.4 300.15 88.22 302.38 88.22 303.55 91.4 301.32 91.4 300.15"/>
                      <polygon class="cls-32" points="92.16 299.61 92.16 300.78 93.06 300.16 93.06 298.98 92.16 299.61"/>
                      <polygon class="cls-32" points="87.67 302.76 78.78 309 78.78 310.18 87.67 303.94 87.67 302.76"/>
                      <polygon class="cls-32" points="91.4 303.2 88.22 305.43 88.22 306.61 91.4 304.38 91.4 303.2"/>
                      <polygon class="cls-32" points="87.67 305.82 78.78 312.06 78.78 313.23 87.67 306.99 87.67 305.82"/>
                      <polygon class="cls-32" points="87.67 308.87 78.78 315.11 78.78 316.28 87.67 310.05 87.67 308.87"/>
                    </g>
                    <g>
                      <polygon class="cls-32" points="91.4 309.14 88.22 311.37 88.22 312.54 91.4 310.31 91.4 309.14"/>
                      <polygon class="cls-32" points="92.16 308.6 92.16 309.78 93.06 309.15 93.06 307.97 92.16 308.6"/>
                      <polygon class="cls-32" points="87.67 311.75 78.78 317.99 78.78 319.16 87.67 312.93 87.67 311.75"/>
                      <polygon class="cls-32" points="91.4 312.2 88.22 314.43 88.22 315.6 91.4 313.37 91.4 312.2"/>
                      <polygon class="cls-32" points="87.67 314.81 78.78 321.05 78.78 322.22 87.67 315.98 87.67 314.81"/>
                      <polygon class="cls-32" points="87.67 317.87 78.78 324.1 78.78 325.28 87.67 319.04 87.67 317.87"/>
                    </g>
                    <g>
                      <polygon class="cls-32" points="91.4 318.13 88.22 320.36 88.22 321.53 91.4 319.31 91.4 318.13"/>
                      <polygon class="cls-32" points="92.16 317.59 92.16 318.77 93.06 318.14 93.06 316.97 92.16 317.59"/>
                      <polygon class="cls-32" points="87.67 320.75 78.78 326.98 78.78 328.16 87.67 321.92 87.67 320.75"/>
                      <polygon class="cls-32" points="91.4 321.19 88.22 323.42 88.22 324.59 91.4 322.36 91.4 321.19"/>
                      <polygon class="cls-32" points="87.67 323.8 78.78 330.04 78.78 331.21 87.67 324.97 87.67 323.8"/>
                      <polygon class="cls-32" points="87.67 326.86 78.78 333.09 78.78 334.27 87.67 328.03 87.67 326.86"/>
                    </g>
                  </g>
                </g>
              </g>
            </g>
            <g>
              <polyline class="cls-7" points="179.51 157.17 179.51 131.58 56.13 218.13 56.13 243.72"/>
              <line class="cls-7" x1="117.82" y1="155.8" x2="117.82" y2="200.45"/>
            </g>
            <g>
              <g>
                <path class="cls-16" d="m116.52,110.32s.02.01.04.02h0s-.02,0-.03-.02t-.02,0Z"/>
                <path class="cls-42" d="m109.33,109.06c-.08,0-.15.02-.22.03.08,0,.14-.02.22-.03Z"/>
                <g>
                  <path class="cls-33" d="m171.21,98.36l-22.05-15.22c-1.97-1.75-4.93-2.07-8.66.77-1.87,1.42-4,4.11-5.77,6.7,5.16,3.71,9.81,7.13,14.19,10.1h0c-.24-.12-.5-.23-.75-.32,3.78,1.38,5.73,5.85,5.7,12.17,0,.23,0,.46-.01.69,2-4.98,5.4-10.18,9.36-12.92.35-.24.7-.47,1.05-.67.02-.01.05-.03.07-.04.33-.19.65-.35.98-.5.04-.02.07-.04.11-.05.31-.14.61-.25.91-.35.04-.01.09-.03.13-.04.29-.09.58-.16.86-.21.04-.01.09-.02.12-.02.28-.05.55-.08.81-.09.04,0,.08,0,.12,0,.26,0,.53,0,.77.03.03,0,.06,0,.1.01.25.03.5.08.74.15.02,0,.04.01.06.02.24.07.48.16.71.27,0,0,.01,0,.01,0,.96.47,1.75,1.26,2.33,2.3,0,0,0,.01,0,.01.14.26.27.54.39.83,0,0,0,.01,0,.02.12.29.21.6.31.93v.02c.09.33.16.66.21,1.02.01,0,.01,0,.01.02.05.36.1.73.12,1.11h0c-.06-3.21-1.14-5.59-2.94-6.73Z"/>
                  <path class="cls-15" d="m143.63,100.1s.03,0,.04-.01c.38-.06.76-.1,1.13-.13-.38.02-.77.07-1.17.14Z"/>
                  <path class="cls-10" d="m148.05,100.35c-.6-.21-1.24-.34-1.93-.39.69.05,1.33.18,1.93.39Z"/>
                  <path class="cls-25" d="m144.96,99.95c.36-.02.71-.02,1.05,0-.33-.02-.69-.02-1.05,0Z"/>
                </g>
                <path class="cls-43" d="m112.03,108.98c-.07,0-.14-.01-.21-.01.07,0,.14,0,.21.01Z"/>
              </g>
              <g>
                <path class="cls-22" d="m75.19,156.11s0-.04,0-.07l-.54-.39c.19.14.37.29.53.46Z"/>
                <path class="cls-6" d="m45.12,188.6c.05-8.97,7.39-24.95,16.87-31.52,5.07-3.51,9.44-3.75,12.4-1.62l-21.87-15.77s-.98-.8-1.34-1.02c-.34-.19-1.4-.62-1.4-.62-2.81-.92-6.41-.21-10.46,2.6-9.48,6.58-16.83,22.56-16.87,31.52-.02,4.52,1.77,8.46,4.71,10.51h0l.04.02s.02.02.03.03l20.26,14.03c-1.52-2.15-2.39-5.01-2.37-8.16Z"/>
              </g>
              <path class="cls-28" d="m174.19,106.17c.03-6.98-4.68-10.22-10.99-5.84-3.96,2.74-7.36,7.94-9.36,12.92,0-.23.01-.46.01-.69.06-11.17-6.05-16.57-17.58-9.35-5.57,3.48-10.14,10.35-13.41,17.15-2.21-11.14-11.49-15.34-23.39-7.08-12.79,8.87-22.9,29.55-24.3,42.84-2.95-2.81-7.66-2.88-13.2.96-9.48,6.58-16.83,22.55-16.87,31.52-.05,8.08,5.72,14.35,13.49,11.15l105.32-73.06.27-.19c5.85-4.62,9.95-13.21,9.99-20.32Z"/>
              <path class="cls-38" d="m131.18,88.06c-2.95-2.09-7.18-4.47-9.02-4.47-2.5,0-5.41,1-8.57,3.19-4.39,3.05-8.35,7.99-11.43,13.38,6.07,4.36,13.42,9.68,13.42,9.68-.01,0-.03,0-.04,0,.33.14.66.31.97.48,0,0,.02,0,.03.01.01,0,.03.02.03.02h0s.09.05.13.08c.62.37,1.21.81,1.76,1.31.06.05.12.11.18.16.26.25.52.52.77.8h0c.25.29.49.6.71.92.05.07.1.14.16.22.21.32.42.65.62.99,0,0,0,.01,0,.02.19.35.38.71.56,1.09.04.09.08.18.12.28.17.38.33.77.47,1.18h0c.15.42.28.85.4,1.28.03.11.06.22.09.32.12.44.23.89.32,1.36,3.26-6.8,7.84-13.66,13.41-17.15.1-.07.2-.12.3-.18,5.3-3.25,9.45-3.79,12.34-2.32h0c-5.37-3.65-11.13-7.95-17.75-12.65Z"/>
              <path class="cls-3" d="m99.49,113.27c2.95-2.05,5.73-3.33,8.29-3.93,0,0,3.2-.85,7.79.49,0,0-18.94-13.7-21.08-15.14-4.28-2.89-10.44-2.8-17.58,2.15-12.79,8.87-23,29.55-24.4,42.85l22.68,16.3c1.45-13.3,11.53-33.87,24.28-42.71Z"/>
            </g>
          </g>
        </g>
      </g>
    </g>
  </g>
</svg>