<?xml version="1.0" encoding="UTF-8"?>
<svg id="Capa_2" data-name="Capa 2" xmlns="http://www.w3.org/2000/svg" viewBox="0 0 316.82 206.43">
  <defs>
    <style>
      .cls-1 {
        fill: #1f4690;
      }

      .cls-2 {
        fill: #c2ddf7;
      }

      .cls-3 {
        fill: #214d9e;
      }

      .cls-4 {
        fill: #384d7c;
      }

      .cls-5 {
        fill: #85bbea;
      }

      .cls-6 {
        fill: #388ad2;
      }

      .cls-7 {
        fill: #327cca;
      }

      .cls-8 {
        fill: #509ae0;
      }

      .cls-9 {
        fill: #275fac;
      }

      .cls-10 {
        fill: #e9f4fe;
      }

      .cls-11 {
        fill: #f0f8ff;
      }

      .cls-12 {
        fill: #a1cbef;
      }

      .cls-13 {
        fill: #64bce9;
      }
    </style>
  </defs>
  <g id="Layer_1" data-name="Layer 1">
    <g>
      <g>
        <g>
          <polygon class="cls-11" points="214.06 38.16 311.72 94.54 316.82 91.21 219.43 35.06 214.06 38.16"/>
          <polygon class="cls-8" points="311.72 94.54 301.51 164.89 306.61 161.8 316.82 91.21 311.72 94.54"/>
          <polygon class="cls-10" points="214.06 38.16 203.86 108.51 301.51 164.89 311.72 94.54 214.06 38.16"/>
          <polyline class="cls-2" points="203.86 108.51 142.18 144.12 239.83 200.49 301.51 164.89"/>
          <polygon class="cls-8" points="142.18 144.12 142.18 150.05 239.83 206.43 306.61 167.73 306.61 161.8 239.83 200.49 142.18 144.12"/>
          <polygon class="cls-4" points="216.63 42.61 206.43 107.02 298.94 160.43 309.15 96.02 216.63 42.61"/>
          <polygon class="cls-3" points="219.52 46.32 209.32 106.65 296.05 156.73 306.26 96.39 219.52 46.32"/>
          <polygon class="cls-8" points="290.21 163.41 253.46 184.62 169.67 136.25 206.41 115.03 290.21 163.41"/>
          <polygon class="cls-4" points="284.57 162.89 280.84 165.13 203.68 120.42 207.49 118.2 284.57 162.89"/>
          <polygon class="cls-4" points="277.46 167.07 273.72 169.31 196.56 124.6 200.37 122.38 277.46 167.07"/>
          <polygon class="cls-4" points="271.56 170.45 267.82 172.68 190.66 127.98 194.47 125.75 271.56 170.45"/>
          <polygon class="cls-4" points="264.21 174.74 260.47 176.97 183.31 132.27 187.12 130.04 264.21 174.74"/>
          <polygon class="cls-4" points="258 178.37 254.26 180.61 177.11 135.9 180.91 133.68 258 178.37"/>
          <polygon class="cls-8" points="215.31 168.34 205.98 173.72 184.7 161.44 194.03 156.05 215.31 168.34"/>
          <polygon class="cls-6" points="215.31 168.34 194.03 156.05 184.7 161.44 185.7 162.01 193.98 157.14 214.24 168.95 215.31 168.34"/>
        </g>
        <g>
          <g>
            <path class="cls-7" d="m307.65,102.99l1.09-10.76-7.16-3.9c-.32-3.82-1.3-7.75-2.84-11.59l5.51-2.35-6.73-11.64-5.4,2.3c-2.63-3.48-5.7-6.64-9.09-9.26l.69-6.83-10.61-5.71-.67,6.66c-3.63-1.26-7.09-1.68-10.2-1.34l-4.14-7.1-8.19,1.89-8.26,3.46,12.27,5.13c-2.28,1.86-4.03,4.43-5.09,7.64l-6.42-3.5-1.07,10.6,6.46,3.54c.37,3.96,1.47,8.05,3.16,12.04l-5.12,2.1,6.73,11.64,5.23-2.15c2.69,3.46,5.82,6.6,9.25,9.18l-.7,6.91,10.59,5.87.72-7.07c3.48,1.14,6.78,1.5,9.76,1.14l4.52,7.87,8.26-3.46-4.57-7.96c2.11-1.81,3.77-4.27,4.81-7.31l7.2,3.94Zm-34.67-6.98c-9.23-5.07-15.95-16.7-15.01-25.96.94-9.26,9.18-12.71,18.42-7.71,9.23,5.01,15.95,16.63,15.01,25.96-.95,9.33-9.19,12.78-18.42,7.71Z"/>
            <polygon class="cls-13" points="234.23 57.99 242.42 56.1 246.31 58.25 240.65 61.49 234.23 57.99"/>
            <path class="cls-1" d="m287.12,96.53c-3.46,2.5-8.63,2.51-14.14-.52-9.23-5.07-15.95-16.7-15.01-25.96.77-7.61,6.47-11.29,13.6-9.59l-.16-.36-18.09-1.83s-7.35,9.22-7.5,10.73c0,.04,0,.09,0,.15l1.99,1.09c.37,3.96,1.47,8.05,3.16,12.04l-.84.34c1.41,4.11,2.66,7.76,2.8,8.62.11.68,1.06,2.08,2.33,3.68l2.55-1.05c2.69,3.46,5.82,6.6,9.25,9.18l-.06.61c5.29.46,13.58.77,13.97.66.56-.16,6.16-7.79,6.16-7.79h0Z"/>
            <polygon class="cls-1" points="277.35 111.92 276.95 115.84 268.77 117.72 269.68 108.67 277.35 111.92"/>
            <g>
              <path class="cls-9" d="m300.43,99.08l-8.24-1.73-9.97,10.59,2.16.43s.16.66.41,1.66c.9.02,1.78-.02,2.63-.13l-3.67,9.76,8.19-1.89,8.26-3.46-4.57-7.96c2.11-1.81,3.75-4.25,4.79-7.27Z"/>
              <path class="cls-9" d="m302.5,99.52l-1.94-.41,2.06,1.13c-.08-.46-.12-.72-.12-.72Z"/>
            </g>
            <path class="cls-2" d="m299.46,104.88l1.09-10.76-7.16-3.9c-.32-3.82-1.3-7.75-2.84-11.59l5.51-2.35-6.73-11.64-5.4,2.3c-2.63-3.49-5.7-6.64-9.09-9.26l.69-6.83-10.61-5.71-.68,6.66c-3.63-1.26-7.09-1.68-10.2-1.34l-4.14-7.1-8.26,3.46,4.09,7.02c-2.27,1.86-4.02,4.43-5.09,7.64l-6.42-3.5-1.07,10.6,6.46,3.54c.37,3.96,1.47,8.05,3.16,12.04l-5.12,2.1,6.73,11.64,5.23-2.15c2.69,3.46,5.82,6.6,9.25,9.18l-.7,6.91,10.59,5.87.72-7.07c3.48,1.14,6.78,1.5,9.76,1.13l4.52,7.87,8.26-3.46-4.57-7.96c2.11-1.81,3.77-4.27,4.81-7.31l7.2,3.94Zm-34.67-6.98c-9.23-5.07-15.95-16.7-15.01-25.96.94-9.26,9.18-12.71,18.42-7.71,9.23,5.01,15.95,16.63,15.01,25.96-.95,9.33-9.19,12.78-18.42,7.71Z"/>
            <polygon class="cls-13" points="264.93 45.14 273.12 43.25 283.73 48.96 275.54 50.85 264.93 45.14"/>
            <polygon class="cls-9" points="274.85 57.68 283.03 55.79 283.73 48.96 275.54 50.85 274.85 57.68"/>
            <polygon class="cls-13" points="289.34 64.64 297.52 62.75 304.25 74.39 296.07 76.28 289.34 64.64"/>
            <polygon class="cls-9" points="290.56 78.63 298.74 76.74 304.25 74.39 296.07 76.28 290.56 78.63"/>
            <polygon class="cls-9" points="300.55 94.12 308.74 92.23 307.65 102.99 299.46 104.88 300.55 94.12"/>
            <polygon class="cls-1" points="283.76 119.66 292.02 116.2 300.21 114.31 291.89 117.96 283.76 119.66"/>
          </g>
          <g>
            <path class="cls-7" d="m253.93,35.73l.52-5.15-3.43-1.87c-.15-1.83-.62-3.71-1.36-5.55l2.64-1.13-3.23-5.58-2.59,1.1c-1.26-1.67-2.73-3.18-4.36-4.44l.33-3.27-5.08-2.74-.32,3.19c-1.74-.6-3.4-.81-4.89-.64l-1.98-3.4-3.92.9-3.96,1.66,5.88,2.46c-1.09.89-1.93,2.12-2.44,3.66l-3.08-1.68-.51,5.08,3.1,1.7c.18,1.9.7,3.86,1.51,5.77l-2.45,1.01,3.23,5.58,2.51-1.03c1.29,1.66,2.79,3.16,4.43,4.4l-.34,3.31,5.08,2.81.34-3.39c1.66.55,3.25.72,4.68.54l2.17,3.77,3.96-1.66-2.19-3.81c1.01-.87,1.81-2.04,2.3-3.5l3.45,1.89Zm-16.61-3.34c-4.42-2.43-7.64-8-7.19-12.44.45-4.44,4.4-6.09,8.82-3.69,4.42,2.4,7.64,7.97,7.19,12.44-.45,4.47-4.4,6.12-8.82,3.69Z"/>
            <polygon class="cls-13" points="218.75 14.17 222.67 13.26 224.54 14.3 221.83 15.85 218.75 14.17"/>
            <path class="cls-1" d="m244.09,32.64c-1.66,1.2-4.13,1.2-6.78-.25-4.42-2.43-7.64-8-7.19-12.44.37-3.65,3.1-5.41,6.52-4.6l-.07-.17-8.67-.88s-3.52,4.42-3.6,5.14c0,.02,0,.04,0,.07l.95.52c.18,1.9.7,3.86,1.51,5.77l-.4.16c.68,1.97,1.28,3.72,1.34,4.13.05.32.51.99,1.12,1.76l1.22-.5c1.29,1.66,2.79,3.16,4.43,4.4l-.03.29c2.53.22,6.5.37,6.69.32.27-.08,2.95-3.73,2.95-3.73h0Z"/>
            <polygon class="cls-1" points="239.41 40.01 239.22 41.89 235.3 42.79 235.74 38.46 239.41 40.01"/>
            <g>
              <path class="cls-9" d="m250.47,33.86l-3.95-.83-4.77,5.07,1.03.21s.08.32.2.79c.43,0,.85-.01,1.26-.06l-1.76,4.68,3.92-.9,3.96-1.66-2.19-3.81c1.01-.87,1.8-2.04,2.3-3.48Z"/>
              <path class="cls-9" d="m251.46,34.07l-.93-.2.99.54c-.04-.22-.06-.35-.06-.35Z"/>
            </g>
            <path class="cls-2" d="m250.01,36.64l.52-5.15-3.43-1.87c-.15-1.83-.62-3.71-1.36-5.55l2.64-1.13-3.23-5.58-2.59,1.1c-1.26-1.67-2.73-3.18-4.36-4.44l.33-3.27-5.08-2.74-.32,3.19c-1.74-.6-3.4-.81-4.89-.64l-1.98-3.4-3.96,1.66,1.96,3.36c-1.09.89-1.93,2.12-2.44,3.66l-3.08-1.68-.51,5.08,3.1,1.69c.18,1.9.7,3.86,1.51,5.77l-2.45,1.01,3.23,5.58,2.51-1.03c1.29,1.66,2.79,3.16,4.43,4.4l-.34,3.31,5.08,2.81.34-3.39c1.66.55,3.25.72,4.68.54l2.17,3.77,3.96-1.66-2.19-3.81c1.01-.87,1.81-2.05,2.3-3.5l3.45,1.89Zm-16.61-3.34c-4.42-2.43-7.64-8-7.19-12.44.45-4.44,4.4-6.09,8.83-3.69,4.42,2.4,7.64,7.97,7.19,12.44-.45,4.47-4.4,6.13-8.82,3.69Z"/>
            <polygon class="cls-13" points="233.46 8.01 237.38 7.11 242.47 9.84 238.54 10.75 233.46 8.01"/>
            <polygon class="cls-9" points="238.21 14.02 242.13 13.11 242.47 9.84 238.54 10.75 238.21 14.02"/>
            <polygon class="cls-13" points="245.15 17.35 249.08 16.45 252.3 22.03 248.38 22.93 245.15 17.35"/>
            <polygon class="cls-9" points="245.74 24.06 249.66 23.16 252.3 22.03 248.38 22.93 245.74 24.06"/>
            <polygon class="cls-9" points="250.53 31.48 254.45 30.58 253.93 35.73 250.01 36.64 250.53 31.48"/>
            <polygon class="cls-1" points="242.48 43.72 246.44 42.06 250.36 41.16 246.38 42.9 242.48 43.72"/>
          </g>
          <g>
            <path class="cls-7" d="m293.41,37.63l.67-6.58-4.38-2.39c-.19-2.33-.8-4.74-1.74-7.09l3.37-1.44-4.12-7.12-3.3,1.41c-1.61-2.13-3.49-4.06-5.56-5.67l.42-4.18-6.49-3.49-.41,4.08c-2.22-.77-4.34-1.03-6.24-.82l-2.53-4.35-5.01,1.16-5.05,2.11,7.51,3.14c-1.39,1.14-2.46,2.71-3.11,4.68l-3.93-2.14-.66,6.48,3.95,2.17c.23,2.42.9,4.93,1.93,7.37l-3.13,1.28,4.12,7.12,3.2-1.31c1.65,2.12,3.56,4.04,5.66,5.62l-.43,4.23,6.48,3.59.44-4.33c2.13.7,4.15.92,5.97.7l2.77,4.82,5.05-2.12-2.8-4.87c1.29-1.11,2.31-2.61,2.94-4.47l4.41,2.41Zm-21.22-4.27c-5.65-3.1-9.76-10.21-9.18-15.88.57-5.67,5.62-7.78,11.27-4.71,5.65,3.06,9.76,10.17,9.18,15.88-.58,5.71-5.62,7.82-11.27,4.72Z"/>
            <polygon class="cls-13" points="248.49 10.1 253.5 8.95 255.88 10.26 252.42 12.24 248.49 10.1"/>
            <path class="cls-1" d="m280.85,33.68c-2.12,1.53-5.28,1.54-8.65-.32-5.65-3.1-9.76-10.21-9.18-15.88.47-4.65,3.96-6.91,8.32-5.87l-.09-.22-11.07-1.12s-4.5,5.64-4.59,6.56c0,.02,0,.06,0,.09l1.22.67c.23,2.42.9,4.93,1.93,7.37l-.52.21c.86,2.51,1.63,4.75,1.71,5.28.07.41.65,1.27,1.43,2.25l1.56-.64c1.65,2.12,3.56,4.04,5.66,5.62l-.04.37c3.24.28,8.31.47,8.55.4.34-.1,3.77-4.77,3.77-4.77h0Z"/>
            <polygon class="cls-1" points="274.87 43.1 274.63 45.5 269.62 46.65 270.18 41.11 274.87 43.1"/>
            <g>
              <path class="cls-9" d="m289,35.25l-5.04-1.06-6.1,6.48,1.32.27s.1.4.25,1.01c.55,0,1.09-.01,1.61-.08l-2.24,5.97,5.01-1.16,5.05-2.12-2.8-4.87c1.29-1.11,2.3-2.6,2.93-4.45Z"/>
              <path class="cls-9" d="m290.27,35.51l-1.19-.25,1.26.69c-.05-.28-.08-.44-.08-.44Z"/>
            </g>
            <path class="cls-2" d="m288.4,38.79l.67-6.58-4.38-2.39c-.19-2.34-.8-4.74-1.74-7.09l3.37-1.44-4.12-7.12-3.3,1.41c-1.61-2.13-3.49-4.06-5.56-5.67l.42-4.18-6.49-3.49-.41,4.08c-2.22-.77-4.34-1.03-6.24-.82l-2.53-4.34-5.05,2.11,2.5,4.29c-1.39,1.14-2.46,2.71-3.11,4.68l-3.93-2.14-.66,6.48,3.95,2.16c.22,2.42.9,4.93,1.93,7.37l-3.13,1.28,4.12,7.12,3.2-1.31c1.65,2.12,3.56,4.04,5.66,5.62l-.43,4.23,6.48,3.59.44-4.33c2.13.7,4.15.92,5.97.69l2.77,4.82,5.05-2.12-2.79-4.87c1.29-1.11,2.31-2.61,2.94-4.47l4.41,2.41Zm-21.22-4.27c-5.65-3.1-9.76-10.22-9.18-15.88.57-5.67,5.62-7.78,11.27-4.72,5.65,3.06,9.76,10.17,9.18,15.88-.58,5.71-5.62,7.82-11.27,4.72Z"/>
            <polygon class="cls-13" points="267.28 2.24 272.28 1.09 278.78 4.58 273.77 5.73 267.28 2.24"/>
            <polygon class="cls-9" points="273.34 9.91 278.35 8.76 278.78 4.58 273.77 5.73 273.34 9.91"/>
            <polygon class="cls-13" points="282.21 14.17 287.22 13.01 291.34 20.14 286.33 21.29 282.21 14.17"/>
            <polygon class="cls-9" points="282.95 22.73 287.96 21.58 291.34 20.14 286.33 21.29 282.95 22.73"/>
            <polygon class="cls-9" points="289.07 32.21 294.08 31.05 293.41 37.63 288.4 38.79 289.07 32.21"/>
            <polygon class="cls-1" points="278.8 47.84 283.85 45.72 288.86 44.56 283.77 46.79 278.8 47.84"/>
          </g>
        </g>
      </g>
      <g>
        <g>
          <polygon class="cls-9" points="102 163.42 102 166.5 59.81 191.37 34.54 176.36 36.93 169.18 102 163.42"/>
          <polygon class="cls-12" points="59.81 187.8 102 163.42 75.62 148.19 33.41 172.56 59.81 187.8"/>
          <polygon class="cls-5" points="63.35 177.61 77.38 169.51 77.34 131.94 63.35 131.94 63.35 177.61"/>
          <polygon class="cls-9" points="56.27 163.09 56.27 173.58 63.35 177.61 63.34 160.45 56.27 163.09"/>
          <g>
            <polygon class="cls-9" points="0 190.06 7.03 193.71 119.58 121.53 119.58 23.3 0 92.26 0 190.06"/>
            <polygon class="cls-2" points="7.03 193.71 126.62 125.17 126.62 27.36 7.03 95.9 7.03 193.71"/>
            <polygon class="cls-4" points="12.14 186.6 121.51 123.92 121.51 34.47 12.14 97.15 12.14 186.6"/>
            <polygon class="cls-3" points="16.52 180.51 117.13 122.85 117.13 40.56 16.52 98.22 16.52 180.51"/>
            <polygon class="cls-13" points="119.58 23.3 126.62 27.36 7.03 95.9 0 92.26 119.58 23.3"/>
          </g>
        </g>
        <g>
          <path class="cls-7" d="m101.09,25.63s-23.71,11.1-35.64,7.73c-11.93,14.01-35.64,24.04-35.64,24.04.97,51.82,35.64,49.63,35.64,49.63,0,0,38.88-29.44,41.27-79.23l-5.63-2.18Z"/>
          <path class="cls-2" d="m71.09,35.54c11.93,3.37,35.64-7.73,35.64-7.73-.97,51.94-35.64,81.41-35.64,81.41,0,0-34.67,2.19-35.64-49.63,0,0,23.71-10.03,35.64-24.04Z"/>
          <path class="cls-1" d="m71.09,40.84c10.21,2.88,30.51-6.64,30.51-6.64-.83,44.51-30.51,69.72-30.51,69.72,0,0-29.68,1.85-30.51-42.46,0,0,20.3-8.61,30.51-20.61Z"/>
          <g>
            <path class="cls-4" d="m40.62,63.1c-.02-.54-.04-1.09-.05-1.65,0,0,14.37-6.09,25.01-15.18-7.68,7.86-19.17,14.02-24.96,16.82Z"/>
            <path class="cls-4" d="m98.03,37.52s-19.88,9.32-30.18,6.73c1.16-1.1,2.25-2.23,3.24-3.4,10.21,2.88,30.51-6.64,30.51-6.64-.83,44.51-30.51,69.72-30.51,69.72,0,0-.05,0-.15,0,7.82-8.18,26.44-31.28,27.1-66.41Z"/>
          </g>
        </g>
      </g>
    </g>
  </g>
</svg>