<?xml version="1.0" encoding="UTF-8"?>
<svg id="Layer_1" data-name="Layer 1" xmlns="http://www.w3.org/2000/svg" xmlns:xlink="http://www.w3.org/1999/xlink" viewBox="0 0 35.68 35.67">
  <defs>
    <style>
      .cls-1 {
        fill: url(#linear-gradient);
      }
    </style>
    <linearGradient id="linear-gradient" x1="-1225.94" y1="912.38" x2="-1225.94" y2="911.38" gradientTransform="translate(43755.95 32540.37) scale(35.68 -35.67)" gradientUnits="userSpaceOnUse">
      <stop offset="0" stop-color="#00ace3"/>
      <stop offset="1" stop-color="#005cd5"/>
    </linearGradient>
  </defs>
  <g id="backup-2">
    <path id="Path_2007-2" data-name="Path 2007-2" class="cls-1" d="m33.3,29.72c-1.08,0-2.02.73-2.29,1.78h-6.03v-4.16h5.35c.33,0,.59-.27.59-.59h0V10.67c2.94-.33,5.05-2.97,4.72-5.91-.33-2.94-2.97-5.05-5.91-4.72-2.94.33-5.05,2.97-4.72,5.91.28,2.48,2.24,4.44,4.72,4.72v15.49h-4.76v-7.13c0-1.74-3.86-2.3-6.54-2.37v-5.99c2.94-.33,5.05-2.97,4.72-5.91C22.83,1.82,20.18-.29,17.25.03c-2.94.33-5.05,2.97-4.72,5.91.28,2.48,2.24,4.44,4.72,4.72v5.99c-2.67.07-6.54.63-6.54,2.37v7.13h-4.76v-15.49c2.94-.33,5.05-2.97,4.72-5.91C10.35,1.82,7.7-.29,4.77.03,1.83.36-.29,3.01.04,5.94c.28,2.48,2.24,4.44,4.72,4.72v16.08c0,.33.27.59.59.59h5.35v4.16h-6.03c-.33-1.27-1.63-2.04-2.9-1.71-1.27.33-2.04,1.63-1.71,2.9s1.63,2.04,2.9,1.71c.84-.22,1.49-.87,1.71-1.71h6.03v.59c0,1.88,4.48,2.38,7.13,2.38s7.13-.5,7.13-2.38v-.59h6.03c.33,1.27,1.63,2.03,2.9,1.7,1.27-.33,2.03-1.63,1.7-2.9-.27-1.05-1.22-1.78-2.3-1.78h0Zm-5.35-21.4c.03-1.31,1.11-2.36,2.43-2.33,1.28.03,2.3,1.05,2.33,2.33,0,.16-.02.32-.06.48-1.4.95-3.24.95-4.65,0-.03-.16-.05-.32-.06-.48h0Zm1.78-4.16c0-.33.27-.59.59-.59.33,0,.59.27.59.59s-.27.59-.59.59-.59-.27-.59-.59h0Zm-3.57,1.19c0-2.3,1.85-4.17,4.15-4.17,2.3,0,4.17,1.85,4.17,4.15,0,.81-.23,1.6-.67,2.28-.23-1.1-.96-2.03-1.98-2.51.18-.28.27-.6.27-.93,0-.98-.8-1.78-1.78-1.78s-1.78.8-1.78,1.78c0,.33.1.66.27.93-1.02.48-1.75,1.41-1.98,2.51-.44-.67-.67-1.45-.67-2.25ZM2.98,8.33c.03-1.31,1.11-2.36,2.43-2.33,1.28.03,2.3,1.05,2.33,2.33,0,.16-.02.32-.06.48-1.4.95-3.24.95-4.65,0-.03-.16-.05-.32-.05-.48Zm1.78-4.16c0-.33.27-.59.59-.59.33,0,.59.27.59.59,0,.33-.27.59-.59.59h0c-.33,0-.59-.27-.59-.59Zm-3.57,1.19c0-2.3,1.85-4.17,4.15-4.17,2.3,0,4.17,1.85,4.17,4.15,0,.81-.23,1.59-.67,2.27-.23-1.1-.96-2.03-1.98-2.51.18-.28.27-.6.27-.93,0-.98-.8-1.78-1.78-1.78s-1.78.8-1.78,1.78c0,.33.1.66.27.93-1.02.48-1.75,1.4-1.98,2.51-.44-.67-.67-1.45-.67-2.25h0Zm1.19,27.94c-.66,0-1.19-.53-1.19-1.19,0-.66.53-1.19,1.19-1.19.66,0,1.19.53,1.19,1.19,0,0,0,0,0,0,0,.66-.53,1.19-1.19,1.19ZM15.47,8.33c.03-1.31,1.11-2.36,2.43-2.33,1.28.03,2.3,1.05,2.33,2.33,0,.16-.02.32-.06.48-1.4.95-3.24.95-4.65,0-.03-.16-.05-.32-.05-.48Zm1.78-4.16c0-.33.27-.59.59-.59.33,0,.59.27.59.59s-.27.59-.59.59h0c-.33,0-.59-.27-.59-.59Zm-3.57,1.19c0-2.3,1.85-4.17,4.15-4.17,2.3,0,4.17,1.85,4.17,4.15,0,.81-.23,1.59-.67,2.27-.23-1.1-.96-2.03-1.98-2.51.18-.28.27-.6.27-.93,0-.98-.8-1.78-1.78-1.78s-1.78.8-1.78,1.78c0,.33.1.66.27.93-1.02.48-1.75,1.41-1.98,2.51-.44-.67-.67-1.45-.67-2.25h0Zm4.16,12.48c3.52,0,5.7.76,5.94,1.19-.24.43-2.41,1.19-5.94,1.19s-5.76-.78-5.94-1.16h0c.18-.43,2.36-1.22,5.94-1.22Zm-5.94,2.6c1.9.7,3.92,1.02,5.94.96,2.02.06,4.04-.27,5.94-.97v3.32c-.18.42-2.36,1.21-5.94,1.21s-5.78-.79-5.94-1.19v-3.34Zm0,4.76c1.9.7,3.92,1.02,5.94.96,2.02.06,4.04-.27,5.94-.97v3.32c-.17.42-2.36,1.21-5.94,1.21s-5.78-.79-5.94-1.19v-3.34Zm5.94,9.29c-3.59,0-5.78-.79-5.94-1.19v-3.34c1.9.7,3.92,1.02,5.94.96,2.03.06,4.04-.27,5.95-.97v3.32c-.17.42-2.35,1.21-5.95,1.21h0Zm15.45-1.19c-.66,0-1.19-.53-1.19-1.19,0-.66.53-1.19,1.19-1.19.66,0,1.19.53,1.19,1.19,0,0,0,0,0,0,0,.66-.53,1.19-1.19,1.19h0Z"/>
  </g>
</svg>