<?xml version="1.0" encoding="UTF-8"?>
<svg id="Layer_1" data-name="Layer 1" xmlns="http://www.w3.org/2000/svg" xmlns:xlink="http://www.w3.org/1999/xlink" viewBox="0 0 45.05 46">
  <defs>
    <style>
      .cls-1 {
        fill: #fff;
      }

      .cls-2 {
        fill: none;
      }

      .cls-3 {
        fill: url(#linear-gradient);
      }
    </style>
    <linearGradient id="linear-gradient" x1="-3030.46" y1="2082.98" x2="-3030.46" y2="2081.98" gradientTransform="translate(30129.65 41872.82) scale(9.94 -20.1)" gradientUnits="userSpaceOnUse">
      <stop offset="0" stop-color="#00ace3"/>
      <stop offset="1" stop-color="#005cd5"/>
    </linearGradient>
    <clipPath id="clippath">
      <rect class="cls-2" x="-1481.28" y="-844.75" width="800" height="4109"/>
    </clipPath>
  </defs>
  <g id="f">
    <rect id="Rectangle_146" data-name="Rectangle 146" class="cls-1" width="45.05" height="46" rx="4" ry="4"/>
    <g id="_002-facebook-letter-logo" data-name=" 002-facebook-letter-logo">
      <g id="Group_39" data-name="Group 39">
        <path id="Path_13" data-name="Path 13" class="cls-3" d="m26.23,11.84h-2.23c-1.33-.13-2.65.28-3.67,1.14-.8.93-1.21,2.13-1.12,3.35v1.41c-.01.38-.33.68-.72.67h-.77c-.38-.01-.7.29-.72.67v2.11c.01.38.33.68.72.67h.77c.38-.01.7.29.72.67v8.69c.01.38.33.68.72.67h2.99c.38.01.7-.29.72-.67v-8.69c.01-.38.33-.68.72-.67h1.51c.39,0,.73-.28.79-.67l.24-2.12c.03-.33-.21-.63-.54-.67-.03,0-.07,0-.1,0h-1.9c-.38.01-.7-.29-.72-.67v-1.06c0-.2,0-.4.04-.6.03-.15.09-.29.18-.42.11-.15.26-.25.44-.29.27-.06.54-.09.81-.08h1.12c.38.01.7-.29.72-.67v-2.11c-.01-.38-.33-.68-.71-.67Z"/>
      </g>
    </g>
  </g>
</svg>