<?xml version="1.0" encoding="UTF-8"?>
<svg id="Layer_1" data-name="Layer 1" xmlns="http://www.w3.org/2000/svg" xmlns:xlink="http://www.w3.org/1999/xlink" viewBox="0 0 45.05 46">
  <defs>
    <style>
      .cls-1 {
        fill: url(#linear-gradient-2);
      }

      .cls-2 {
        fill: #fff;
      }

      .cls-3 {
        fill: none;
      }

      .cls-4 {
        fill: url(#linear-gradient-3);
      }

      .cls-5 {
        fill: url(#linear-gradient);
      }
    </style>
    <linearGradient id="linear-gradient" x1="-3266.59" y1="2040.54" x2="-3266.59" y2="2039.54" gradientTransform="translate(86025.14 50563.65) scale(26.33 -24.77)" gradientUnits="userSpaceOnUse">
      <stop offset="0" stop-color="#00ace3"/>
      <stop offset="1" stop-color="#005cd5"/>
    </linearGradient>
    <linearGradient id="linear-gradient-2" x1="-3159.66" y1="2201.28" x2="-3159.66" y2="2200.28" gradientTransform="translate(41622.54 28997.26) scale(13.17 -13.17)" gradientUnits="userSpaceOnUse">
      <stop offset="0" stop-color="#00ace3"/>
      <stop offset="1" stop-color="#005cd5"/>
    </linearGradient>
    <linearGradient id="linear-gradient-3" x1="-1768.09" y1="4433.08" x2="-1768.09" y2="4432.08" gradientTransform="translate(3130.72 7789.97) scale(1.75 -1.75)" gradientUnits="userSpaceOnUse">
      <stop offset="0" stop-color="#00ace3"/>
      <stop offset="1" stop-color="#005cd5"/>
    </linearGradient>
    <clipPath id="clippath">
      <rect class="cls-3" x="-1540.93" y="-844.75" width="800" height="4109"/>
    </clipPath>
  </defs>
  <g id="i">
    <rect id="Rectangle_145" data-name="Rectangle 145" class="cls-2" width="45.05" height="46" rx="4" ry="4"/>
    <g id="_010-instagram" data-name=" 010-instagram">
      <g id="Group_42" data-name="Group 42">
        <g id="Group_41" data-name="Group 41">
          <path id="Path_16" data-name="Path 16" class="cls-5" d="m27.34,9.47h-9.87c-4.41-.13-8.09,3.33-8.23,7.74v9.29c.14,4.41,3.82,7.87,8.23,7.74h9.87c4.41.13,8.09-3.33,8.23-7.74v-9.29c-.14-4.41-3.82-7.87-8.23-7.74Zm5.76,17.03c-.1,3.08-2.68,5.51-5.76,5.42h-9.87c-3.08.09-5.66-2.33-5.76-5.42v-9.29c.1-3.08,2.68-5.51,5.76-5.42h9.87c3.08-.09,5.66,2.33,5.76,5.42v9.29Z"/>
        </g>
      </g>
      <g id="Group_44" data-name="Group 44">
        <g id="Group_43" data-name="Group 43">
          <path id="Path_17" data-name="Path 17" class="cls-1" d="m22.4,15.27c-3.64,0-6.58,2.95-6.58,6.58,0,3.64,2.95,6.58,6.58,6.58s6.58-2.95,6.58-6.58h0c0-3.64-2.95-6.58-6.58-6.58Zm0,10.7c-2.27,0-4.11-1.84-4.11-4.11s1.84-4.11,4.11-4.11,4.11,1.84,4.11,4.11h0c0,2.27-1.84,4.11-4.11,4.11Z"/>
        </g>
      </g>
      <g id="Group_46" data-name="Group 46">
        <g id="Group_45" data-name="Group 45">
          <circle id="Ellipse_4" data-name="Ellipse 4" class="cls-4" cx="29.48" cy="15.22" r=".88"/>
        </g>
      </g>
    </g>
  </g>
</svg>