<?xml version="1.0" encoding="UTF-8"?>
<svg id="Layer_1" data-name="Layer 1" xmlns="http://www.w3.org/2000/svg" xmlns:xlink="http://www.w3.org/1999/xlink" viewBox="0 0 45.05 46">
  <defs>
    <style>
      .cls-1 {
        fill: #fff;
      }

      .cls-2 {
        fill: none;
      }

      .cls-3 {
        fill: url(#linear-gradient);
      }
    </style>
    <linearGradient id="linear-gradient" x1="-3286.53" y1="2053.65" x2="-3286.53" y2="2052.65" gradientTransform="translate(63652.81 47475.24) scale(19.36 -23.11)" gradientUnits="userSpaceOnUse">
      <stop offset="0" stop-color="#00ace3"/>
      <stop offset="1" stop-color="#005cd5"/>
    </linearGradient>
    <clipPath id="clippath">
      <rect class="cls-2" x="-1599.36" y="-844.75" width="800" height="4109"/>
    </clipPath>
  </defs>
  <g id="p">
    <rect id="Rectangle_144" data-name="Rectangle 144" class="cls-1" width="45.05" height="46" rx="4" ry="4"/>
    <g id="_028-pinterest" data-name=" 028-pinterest">
      <path class="cls-3" d="m30.29,12.6c-1.83-1.58-4.19-2.42-6.61-2.37-2.82-.12-5.57.88-7.66,2.77-1.6,1.46-2.53,3.51-2.58,5.67,0,2.57,1.15,4.55,3.07,5.28.12.05.25.07.39.07.4,0,.74-.26.84-.65.06-.23.22-.79.28-1.04.14-.37.03-.8-.28-1.05-.56-.63-.85-1.45-.81-2.29,0-2.82,2.24-5.81,6.38-5.81,3.29,0,5.33,1.75,5.33,4.58.04,1.62-.36,3.23-1.15,4.65-.55,1.07-1.62,1.78-2.82,1.85-.56.02-1.11-.22-1.49-.64-.32-.39-.44-.91-.3-1.39.15-.58.35-1.19.54-1.78.37-.93.6-1.9.69-2.89.08-1.19-.81-2.22-2-2.31-.08,0-.17,0-.25,0-1.71,0-3.06,1.63-3.06,3.72,0,.71.14,1.42.42,2.08-.22.86-1.5,5.96-1.74,6.92-.14.56-.99,5,.41,5.35,1.58.4,2.98-3.92,3.13-4.41.12-.4.52-1.9.77-2.82.89.75,2.02,1.15,3.18,1.15,2.21.02,4.3-.96,5.69-2.67,1.45-1.87,2.2-4.19,2.14-6.56-.04-2.08-.95-4.04-2.51-5.41Z"/>
    </g>
  </g>
</svg>