<?xml version="1.0" encoding="UTF-8"?>
<svg id="Layer_1" data-name="Layer 1" xmlns="http://www.w3.org/2000/svg" xmlns:xlink="http://www.w3.org/1999/xlink" viewBox="0 0 40.59 40.76">
  <defs>
    <style>
      .cls-1 {
        fill: url(#linear-gradient-2);
      }

      .cls-2 {
        fill: url(#linear-gradient-15);
      }

      .cls-3 {
        fill: url(#linear-gradient-14);
      }

      .cls-4 {
        fill: url(#linear-gradient-6);
      }

      .cls-5 {
        fill: url(#linear-gradient-11);
      }

      .cls-6 {
        fill: url(#linear-gradient-10);
      }

      .cls-7 {
        fill: url(#linear-gradient-5);
      }

      .cls-8 {
        fill: url(#linear-gradient-7);
      }

      .cls-9 {
        fill: url(#linear-gradient-9);
      }

      .cls-10 {
        fill: url(#linear-gradient-3);
      }

      .cls-11 {
        fill: url(#linear-gradient);
      }

      .cls-12 {
        fill: url(#linear-gradient-4);
      }

      .cls-13 {
        fill: url(#linear-gradient-8);
      }

      .cls-14 {
        fill: url(#linear-gradient-12);
      }

      .cls-15 {
        fill: url(#linear-gradient-13);
      }
    </style>
    <linearGradient id="linear-gradient" x1="-1312.52" y1="949.95" x2="-1312.52" y2="948.95" gradientTransform="translate(53291.49 18725.16) scale(40.59 -19.71)" gradientUnits="userSpaceOnUse">
      <stop offset="0" stop-color="#00ace3"/>
      <stop offset="1" stop-color="#005cd5"/>
    </linearGradient>
    <linearGradient id="linear-gradient-2" x1="-1303.61" y1="1098.8" x2="-1303.61" y2="1097.8" gradientTransform="translate(35420.99 7486.63) scale(27.16 -6.79)" gradientUnits="userSpaceOnUse">
      <stop offset="0" stop-color="#00ace3"/>
      <stop offset="1" stop-color="#005cd5"/>
    </linearGradient>
    <linearGradient id="linear-gradient-3" x1="-1052.83" y1="1457.5" x2="-1052.83" y2="1456.5" gradientTransform="translate(2800.86 3864.03) scale(2.63 -2.63)" gradientUnits="userSpaceOnUse">
      <stop offset="0" stop-color="#00ace3"/>
      <stop offset="1" stop-color="#005cd5"/>
    </linearGradient>
    <linearGradient id="linear-gradient-4" x1="-1279.26" y1="2007.03" x2="-1279.26" y2="2006.03" gradientTransform="translate(18256.02 2754.08) scale(14.26 -1.36)" gradientUnits="userSpaceOnUse">
      <stop offset="0" stop-color="#00ace3"/>
      <stop offset="1" stop-color="#005cd5"/>
    </linearGradient>
    <linearGradient id="linear-gradient-5" x1="-1099.52" y1="2007.03" x2="-1099.52" y2="2006.03" gradientTransform="translate(3504.92 2754.08) scale(3.16 -1.36)" gradientUnits="userSpaceOnUse">
      <stop offset="0" stop-color="#00ace3"/>
      <stop offset="1" stop-color="#005cd5"/>
    </linearGradient>
    <linearGradient id="linear-gradient-6" x1="-1303.61" y1="1098.8" x2="-1303.61" y2="1097.8" gradientTransform="translate(35420.99 7494.78) scale(27.16 -6.79)" gradientUnits="userSpaceOnUse">
      <stop offset="0" stop-color="#00ace3"/>
      <stop offset="1" stop-color="#005cd5"/>
    </linearGradient>
    <linearGradient id="linear-gradient-7" x1="-1052.83" y1="1457.5" x2="-1052.83" y2="1456.5" gradientTransform="translate(2800.86 3872.18) scale(2.63 -2.63)" gradientUnits="userSpaceOnUse">
      <stop offset="0" stop-color="#00ace3"/>
      <stop offset="1" stop-color="#005cd5"/>
    </linearGradient>
    <linearGradient id="linear-gradient-8" x1="-1279.26" y1="2007.03" x2="-1279.26" y2="2006.03" gradientTransform="translate(18256.02 2762.23) scale(14.26 -1.36)" gradientUnits="userSpaceOnUse">
      <stop offset="0" stop-color="#00ace3"/>
      <stop offset="1" stop-color="#005cd5"/>
    </linearGradient>
    <linearGradient id="linear-gradient-9" x1="-1099.52" y1="2007.03" x2="-1099.52" y2="2006.03" gradientTransform="translate(3504.92 2762.23) scale(3.16 -1.36)" gradientUnits="userSpaceOnUse">
      <stop offset="0" stop-color="#00ace3"/>
      <stop offset="1" stop-color="#005cd5"/>
    </linearGradient>
    <linearGradient id="linear-gradient-10" x1="-1303.61" y1="1098.8" x2="-1303.61" y2="1097.8" gradientTransform="translate(35420.99 7478.51) scale(27.16 -6.79)" gradientUnits="userSpaceOnUse">
      <stop offset="0" stop-color="#00ace3"/>
      <stop offset="1" stop-color="#005cd5"/>
    </linearGradient>
    <linearGradient id="linear-gradient-11" x1="-1054.61" y1="1457.11" x2="-1054.61" y2="1456.11" gradientTransform="translate(2823.2 3857.45) scale(2.65 -2.63)" gradientUnits="userSpaceOnUse">
      <stop offset="0" stop-color="#00ace3"/>
      <stop offset="1" stop-color="#005cd5"/>
    </linearGradient>
    <linearGradient id="linear-gradient-12" x1="-1279.26" y1="2007.03" x2="-1279.26" y2="2006.03" gradientTransform="translate(18255.88 2745.94) scale(14.26 -1.36)" gradientUnits="userSpaceOnUse">
      <stop offset="0" stop-color="#00ace3"/>
      <stop offset="1" stop-color="#005cd5"/>
    </linearGradient>
    <linearGradient id="linear-gradient-13" x1="-1099.52" y1="2007.03" x2="-1099.52" y2="2006.03" gradientTransform="translate(3504.49 2745.94) scale(3.16 -1.36)" gradientUnits="userSpaceOnUse">
      <stop offset="0" stop-color="#00ace3"/>
      <stop offset="1" stop-color="#005cd5"/>
    </linearGradient>
    <linearGradient id="linear-gradient-14" x1="-1195.43" y1="1078.19" x2="-1195.43" y2="1077.19" gradientTransform="translate(6482.24 8060.51) scale(5.41 -7.47)" gradientUnits="userSpaceOnUse">
      <stop offset="0" stop-color="#00ace3"/>
      <stop offset="1" stop-color="#005cd5"/>
    </linearGradient>
    <linearGradient id="linear-gradient-15" x1="-1195.51" y1="1078.19" x2="-1195.51" y2="1077.19" gradientTransform="translate(6497.23 8060.5) scale(5.41 -7.47)" gradientUnits="userSpaceOnUse">
      <stop offset="0" stop-color="#00ace3"/>
      <stop offset="1" stop-color="#005cd5"/>
    </linearGradient>
  </defs>
  <g id="_002-cloud-2" data-name=" 002-cloud-2">
    <g id="Group_1446-2" data-name="Group 1446-2">
      <g id="Group_1445-2" data-name="Group 1445-2">
        <path id="Path_1992-2" data-name="Path 1992-2" class="cls-11" d="m35.7,10.21c-.5,0-.99.08-1.46.23.04-.36.07-.71.07-1.07C34.23,4.11,29.92-.08,24.67,0c-3.84.06-7.27,2.42-8.69,5.99-2.75-1.7-6.35-.86-8.06,1.89-.55.89-.86,1.92-.88,2.97-.74-.43-1.58-.65-2.43-.65C1.99,10.28-.07,12.47,0,15.1c.07,2.52,2.1,4.54,4.61,4.61.38,0,.68-.3.68-.68,0-.37-.3-.68-.68-.68-1.87-.03-3.37-1.57-3.34-3.44s1.57-3.37,3.44-3.34c1.14.02,2.2.61,2.82,1.58.2.32.62.41.94.21.28-.18.39-.53.26-.84-.21-.52-.33-1.07-.33-1.63.03-2.46,2.04-4.43,4.5-4.41,1.1,0,2.16.41,2.98,1.13.28.25.71.22.96-.07.07-.08.12-.17.14-.26,1.25-4.32,5.76-6.82,10.08-5.57,3.43.99,5.81,4.09,5.89,7.66,0,.71-.11,1.42-.3,2.1-.1.36.11.74.47.84.19.05.4.02.57-.1.59-.41,1.29-.64,2.01-.64,1.87,0,3.39,1.52,3.39,3.39s-1.52,3.39-3.39,3.39c-.38,0-.68.3-.68.68,0,.38.3.68.68.68h0c2.62.08,4.81-1.99,4.89-4.61.08-2.62-1.99-4.81-4.61-4.89-.09,0-.18,0-.28,0h0Z"/>
      </g>
    </g>
    <g id="Group_1448-2" data-name="Group 1448-2">
      <g id="Group_1447-2" data-name="Group 1447-2">
        <path id="Path_1993-2" data-name="Path 1993-2" class="cls-1" d="m31.7,25.82H8.62c-1.12,0-2.04.91-2.04,2.04v2.72c0,1.12.91,2.04,2.04,2.04h23.08c1.12,0,2.04-.91,2.04-2.04v-2.72c0-1.12-.91-2.04-2.04-2.04Zm.68,4.75c0,.38-.3.68-.68.68H8.62c-.37,0-.68-.3-.68-.68v-2.72c0-.38.3-.68.68-.68h23.08c.37,0,.68.3.68.68v2.72Z"/>
      </g>
    </g>
    <g id="Group_1450-2" data-name="Group 1450-2">
      <g id="Group_1449-2" data-name="Group 1449-2">
        <path id="Path_1994-2" data-name="Path 1994-2" class="cls-10" d="m29.81,27.9c-.73,0-1.31.6-1.31,1.32,0,.73.6,1.31,1.32,1.31.73,0,1.31-.6,1.31-1.32h0c0-.73-.6-1.31-1.32-1.31Zm.02,1.36s-.03-.02-.03-.04l.03-.04v.08Z"/>
      </g>
    </g>
    <g id="Group_1452-2" data-name="Group 1452-2">
      <g id="Group_1451-2" data-name="Group 1451-2">
        <path id="Path_1995-2" data-name="Path 1995-2" class="cls-12" d="m22.74,28.54h-12.9c-.38,0-.68.3-.68.68s.3.68.68.68h12.9c.38,0,.68-.3.68-.68s-.3-.68-.68-.68Z"/>
      </g>
    </g>
    <g id="Group_1454-2" data-name="Group 1454-2">
      <g id="Group_1453-2" data-name="Group 1453-2">
        <path id="Path_1996-2" data-name="Path 1996-2" class="cls-7" d="m26.93,28.54h-1.81c-.38,0-.68.3-.68.68s.3.68.68.68h1.81c.38,0,.68-.3.68-.68s-.3-.68-.68-.68Z"/>
      </g>
    </g>
    <g id="Group_1456-2" data-name="Group 1456-2">
      <g id="Group_1455-2" data-name="Group 1455-2">
        <path id="Path_1997-2" data-name="Path 1997-2" class="cls-4" d="m31.7,33.97H8.62c-1.12,0-2.04.91-2.04,2.04v2.72c0,1.12.91,2.04,2.04,2.04h23.08c1.12,0,2.04-.91,2.04-2.04v-2.72c0-1.12-.91-2.04-2.04-2.04Zm.68,4.75c0,.38-.3.68-.68.68H8.62c-.37,0-.68-.3-.68-.68v-2.72c0-.38.3-.68.68-.68h23.08c.37,0,.68.3.68.68v2.72Z"/>
      </g>
    </g>
    <g id="Group_1458-2" data-name="Group 1458-2">
      <g id="Group_1457-2" data-name="Group 1457-2">
        <path id="Path_1998-2" data-name="Path 1998-2" class="cls-8" d="m29.81,36.05c-.73,0-1.31.6-1.31,1.32,0,.73.6,1.31,1.32,1.31.73,0,1.31-.6,1.31-1.32h0c0-.73-.6-1.31-1.32-1.31Zm.02,1.36s-.03-.02-.03-.04l.03-.04v.08Z"/>
      </g>
    </g>
    <g id="Group_1460-2" data-name="Group 1460-2">
      <g id="Group_1459-2" data-name="Group 1459-2">
        <path id="Path_1999-2" data-name="Path 1999-2" class="cls-13" d="m22.74,36.69h-12.9c-.38,0-.68.3-.68.68s.3.68.68.68h12.9c.38,0,.68-.3.68-.68s-.3-.68-.68-.68Z"/>
      </g>
    </g>
    <g id="Group_1462-2" data-name="Group 1462-2">
      <g id="Group_1461-2" data-name="Group 1461-2">
        <path id="Path_2000-2" data-name="Path 2000-2" class="cls-9" d="m26.93,36.69h-1.81c-.38,0-.68.3-.68.68s.3.68.68.68h1.81c.38,0,.68-.3.68-.68s-.3-.68-.68-.68Z"/>
      </g>
    </g>
    <g id="Group_1464-2" data-name="Group 1464-2">
      <g id="Group_1463-2" data-name="Group 1463-2">
        <path id="Path_2001-2" data-name="Path 2001-2" class="cls-6" d="m31.7,17.68H8.62c-1.13,0-2.04.91-2.04,2.04h0v2.72c0,1.12.91,2.04,2.04,2.04h23.08c1.13,0,2.04-.91,2.04-2.04h0v-2.72c0-1.12-.91-2.04-2.04-2.04h0Zm.68,4.75c0,.38-.3.68-.68.68H8.62c-.38,0-.68-.3-.68-.68h0v-2.72c0-.38.3-.68.68-.68h23.08c.38,0,.68.3.68.68h0v2.72Z"/>
      </g>
    </g>
    <g id="Group_1466-2" data-name="Group 1466-2">
      <g id="Group_1465-2" data-name="Group 1465-2">
        <path id="Path_2002-2" data-name="Path 2002-2" class="cls-5" d="m30.92,20.89c-.13-.72-.82-1.2-1.54-1.07-.34.06-.65.26-.85.54-.2.28-.28.64-.22.98.11.63.66,1.09,1.31,1.09.07,0,.15,0,.22-.02.35-.06.66-.25.86-.54.2-.28.28-.64.22-.98Zm-1.34.24l.03-.05v.09s-.03-.02-.03-.03Z"/>
      </g>
    </g>
    <g id="Group_1468-2" data-name="Group 1468-2">
      <g id="Group_1467-2" data-name="Group 1467-2">
        <path id="Path_2003-2" data-name="Path 2003-2" class="cls-14" d="m22.6,20.39h-12.9c-.38,0-.68.3-.68.68s.3.68.68.68h12.9c.38,0,.68-.3.68-.68s-.3-.68-.68-.68Z"/>
      </g>
    </g>
    <g id="Group_1470-2" data-name="Group 1470-2">
      <g id="Group_1469-2" data-name="Group 1469-2">
        <path id="Path_2004-2" data-name="Path 2004-2" class="cls-15" d="m26.49,20.39h-1.81c-.38,0-.68.3-.68.68s.3.68.68.68h1.81c.38,0,.68-.3.68-.68s-.3-.68-.68-.68h0Z"/>
      </g>
    </g>
    <g id="Group_1472-2" data-name="Group 1472-2">
      <g id="Group_1471-2" data-name="Group 1471-2">
        <path id="Path_2005-2" data-name="Path 2005-2" class="cls-3" d="m17.24,11.09l-2.04-2.04c-.27-.26-.69-.26-.96,0l-2.04,2.04c-.26.27-.25.7.02.96.26.25.68.25.94,0l.88-.88v4.47c0,.38.3.68.68.68s.68-.3.68-.68v-4.47l.88.88c.27.26.7.25.96-.02.25-.26.25-.68,0-.94h0Z"/>
      </g>
    </g>
    <g id="Group_1474-2" data-name="Group 1474-2">
      <g id="Group_1473-2" data-name="Group 1473-2">
        <path id="Path_2006-2" data-name="Path 2006-2" class="cls-2" d="m28.09,13.12c-.26-.25-.68-.25-.94,0l-.88.88v-4.47c0-.38-.3-.68-.68-.68s-.68.3-.68.68v4.47l-.88-.88c-.27-.26-.7-.25-.96.02-.25.26-.25.68,0,.94l2.04,2.04c.27.26.69.26.96,0l2.04-2.04c.26-.27.25-.7-.02-.96,0,0,0,0,0,0Z"/>
      </g>
    </g>
  </g>
</svg>