<?xml version="1.0" encoding="UTF-8"?>
<svg id="Layer_1" data-name="Layer 1" xmlns="http://www.w3.org/2000/svg" xmlns:xlink="http://www.w3.org/1999/xlink" viewBox="0 0 45.05 46">
  <defs>
    <style>
      .cls-1 {
        fill: #fff;
      }

      .cls-2 {
        fill: none;
      }

      .cls-3 {
        fill: url(#linear-gradient);
      }
    </style>
    <linearGradient id="linear-gradient" x1="-3132" y1="2108.65" x2="-3132" y2="2107.65" gradientTransform="translate(71457.21 38046.59) scale(22.81 -18.04)" gradientUnits="userSpaceOnUse">
      <stop offset="0" stop-color="#00ace3"/>
      <stop offset="1" stop-color="#005cd5"/>
    </linearGradient>
    <clipPath id="clippath">
      <rect class="cls-2" x="-1422.84" y="-844.75" width="800" height="4109"/>
    </clipPath>
  </defs>
  <g id="t">
    <rect id="Rectangle_147" data-name="Rectangle 147" class="cls-1" width="45.05" height="46" rx="4" ry="4"/>
    <g id="_001-twitter-black-shape" data-name=" 001-twitter-black-shape">
      <g id="Group_38" data-name="Group 38">
        <path id="Path_12" data-name="Path 12" class="cls-3" d="m32.89,16.45c-.11.03-.23.06-.34.09-.69.16-.75-.05-.25-.52.22-.21.42-.44.59-.69.38-.56.05-.8-.6-.54-.23.09-.47.18-.71.25-.77.13-1.57-.04-2.22-.46-.78-.45-1.67-.69-2.58-.67-1.28-.03-2.52.45-3.45,1.33-.92.82-1.44,1.99-1.43,3.22,0,.18.01.35.03.52.03.29-.49.5-1.19.4-1.5-.19-2.96-.63-4.33-1.29-1.32-.63-2.53-1.46-3.59-2.47-.5-.47-1.17-.43-1.35.21-.11.39-.17.79-.17,1.2,0,.76.2,1.51.59,2.17.19.33.42.63.69.9.44.45.37.72-.24.55-.36-.1-.72-.23-1.06-.38v.03c-.01,1.07.38,2.11,1.11,2.9.44.5.98.91,1.59,1.19.63.29.93.46.58.5-.21.03-.43.04-.65.04-.15,0-.3,0-.46-.02-.25-.02-.3.47.09,1.03.32.46.72.85,1.18,1.17.48.34,1.01.59,1.57.74.68.18.82.51.21.85-1.53.85-3.25,1.28-4.99,1.26-.21,0-.4,0-.59-.01-.32-.01-.11.25.52.56,1.99.96,4.17,1.46,6.37,1.44,1.66.01,3.3-.25,4.87-.77,1.41-.45,2.73-1.15,3.89-2.06,1.07-.85,2-1.85,2.78-2.97.76-1.07,1.34-2.25,1.74-3.5.38-1.18.57-2.42.57-3.66v-.3c0-.16.46-.61.98-1.06.23-.2.46-.42.67-.64.46-.49.26-.72-.42-.53Z"/>
      </g>
    </g>
  </g>
</svg>